<svg xmlns="http://www.w3.org/2000/svg" version="1.0" viewBox="240 466 720 277.6">
    <path
        d="M558 483.6c0 14.4.3 18.2 1.7 21.1 1.8 3.9 6.5 7.3 10.1 7.3h2.2v57h9v-57h2.3c3.5 0 8.2-3.4 10-7.3 1.4-2.9 1.7-6.7 1.7-21.1V466h-9v17.4c0 14.5-.3 17.7-1.6 19-.8.9-2 1.6-2.5 1.6s-.9-8-.9-19v-19h-9v19c0 10.4-.4 19-.8 19-.5 0-1.6-.8-2.5-1.8-1.4-1.6-1.7-4.5-1.7-19V466h-9v17.6zm56 33.9V569h9v-34.5l9.6-4.9 9.5-4.9-.3-20.6c-.3-19-.5-20.9-2.5-24.7-4.3-8.1-13.1-13.4-22.2-13.4H614v51.5zm14.8-37.1 3.7 3.4.3 17.9.3 17.8-4.6 2.3c-2.5 1.2-4.8 2.2-5 2.2-.3 0-.5-10.6-.5-23.5 0-15.2.4-23.5 1-23.5s2.7 1.5 4.8 3.4zM240 570v7h270v-14H240v7zm450 0v7h270v-14H690v7zM406 693v50h16V643h-16v50zm463-32.1c0 16.3-.7 21.1-2.5 18.1-1.7-2.8-9.2-5.4-15.6-5.4-19.6-.1-31.1 16.8-28.8 42.2.5 5.2 1.6 9.2 3.8 13.7 4.7 9.5 11 13.5 21.4 13.5 6.6 0 14.2-2.8 18.4-6.9 2.9-2.8 4.3-2.7 4.3.4 0 4.1 3.3 6.5 8.9 6.5 3 0 5-.5 5.3-1.3.2-.6.4-23 .4-49.7l-.1-48.5-7.7-.3-7.8-.3v18zm-5.8 26.7c5.3 2.7 5.8 4.6 5.8 20 0 13.7-.1 14.4-2.5 17.2-5.5 6.6-16.7 8.4-22.4 3.6-8.2-6.9-8-32.5.3-39.3 4.8-4 12.8-4.6 18.8-1.5zM317 694.5V743h17v-34h7.8c22.3-.1 34.9-5.5 40.9-17.7 2.3-4.9 2.7-6.9 2.7-14.2-.1-10.2-2.4-16-8.6-21.6-8.2-7.5-17.1-9.4-43.5-9.5H317v48.5zm43.7-31.9c1.5 1.1 3.9 3.6 5.1 5.5 2 2.9 2.3 4.4 2 10.1-.4 7.2-2 10.4-7.2 14.2-2.3 1.8-4.5 2.1-14.7 2.4l-11.9.4v-35.4l11.9.4c10.2.3 12.4.6 14.8 2.4zM664 694.5V743h17v-34h7.8c22.3-.1 34.9-5.5 40.9-17.7 2.3-4.9 2.7-6.9 2.7-14.2-.1-10.2-2.4-16-8.6-21.6-8.2-7.5-17.1-9.4-43.5-9.5H664v48.5zm43.7-31.9c1.5 1.1 3.9 3.6 5.1 5.5 2 2.9 2.3 4.4 2 10.1-.4 7.2-2 10.4-7.2 14.2-2.3 1.8-4.5 2.1-14.7 2.4l-11.9.4v-35.4l11.9.4c10.2.3 12.4.6 14.8 2.4zm-172.6-8.7c-.7.5-2.1 5.2-3.1 10.6-1.8 9.7-2.7 11.4-6.5 11.5-5.1.1-6.5 1.1-6.5 4.9 0 4.7 1.4 6.1 6.2 6.1h3.8v19.7c0 20.9.7 26.1 3.8 30.2 5.1 6.9 16.7 8.7 27 4.2 2.8-1.3 5.2-2.6 5.2-2.9 0-.3-1.2-2.5-2.6-5-2.2-3.7-2.9-4.3-4.7-3.7-1.2.4-4 .8-6.2.9-6 .2-6.5-1.5-6.5-24.1v-19.2l9.2-.3 9.3-.3v-5.8l.1-5.7H545v-22h-4.2c-2.4 0-4.9.4-5.7.9zM468.6 674c-6.5 1.2-10.1 2.6-15.8 6.3l-4.7 3.1 2.1 3.8c2.9 5.2 4.9 5.5 11.6 2 14.3-7.4 24.2-3.4 24.2 10v4.6l-6.7.7c-12.5 1.1-22.8 4.3-28.4 8.7-5.3 4.3-7.4 13.3-4.5 20.1 3.2 7.7 13.3 11.8 24.2 9.8 5.4-1 13.5-4.9 14.9-7.1 1.1-1.8 2.3-1 3.5 2.4 1.2 3.7 3 4.6 9.3 4.6h3.7v-23c0-12.8-.5-25.2-1.1-28-2.9-13.4-16.2-20.9-32.3-18zm17.2 46.1c-.3 5.8-.5 6.4-4.1 9.3-3.1 2.5-4.9 3.1-10.2 3.4-5.8.4-6.6.2-8.9-2.1-3.1-3.1-3.4-7.5-.8-10.7 2.4-3 11.5-5.9 18.5-6h5.8l-.3 6.1zM604.9 674c-9.8 1.7-18.3 8-22.6 16.8-2.6 5.2-2.8 6.6-2.8 17.2 0 9.7.3 12.2 2.2 16.2 3.3 7.3 10.5 14.4 17.2 16.9 7.2 2.8 19.2 3 27.1.5 5.7-1.8 13.1-6.2 13.7-8.2.6-1.7-4.6-7.4-6.7-7.4-1 0-4.4 1.2-7.6 2.7-14.5 6.7-28.6.5-30.2-13.2l-.5-4.5h22c15.7 0 22.2-.3 23.1-1.2 1.7-1.7 1.5-10.4-.3-16.6-4.2-14.1-18.5-22.1-34.6-19.2zm15.2 13.3c3.6 2.4 5.5 5.5 6.5 10.6l.7 3.1h-32.5l.7-2.8c1.1-4.4 3.9-8.5 7.5-10.9 4.6-3.2 12.4-3.2 17.1 0zM769.6 674c-6.5 1.2-10.1 2.6-15.8 6.3l-4.7 3.1 2.1 3.8c2.9 5.2 4.9 5.5 11.6 2 14.3-7.4 24.2-3.4 24.2 10v4.6l-6.7.7c-12.5 1.1-22.8 4.3-28.4 8.7-5.3 4.3-7.4 13.3-4.5 20.1 3.2 7.7 13.3 11.8 24.2 9.8 5.4-1 13.5-4.9 14.9-7.1 1.1-1.8 2.3-1 3.5 2.4 1.2 3.7 3 4.6 9.3 4.6h3.7v-23c0-12.8-.5-25.2-1.1-28-2.9-13.4-16.2-20.9-32.3-18zm17.2 46.1c-.3 5.8-.5 6.4-4.1 9.3-3.1 2.5-4.9 3.1-10.2 3.4-5.8.4-6.6.2-8.9-2.1-3.1-3.1-3.4-7.5-.8-10.7 2.4-3 11.5-5.9 18.5-6h5.8l-.3 6.1z"
        fill="#303030" />
</svg>